# xmcd
#
# Track frame offsets: 
#        150
#        19655
#        41940
#        52189
#        64130
#        71043
#        87854
#        103428
#        116213
#        130588
#        145095
#        167670
#        176810
#        195413
#        213109
#        228495
#        241411
#        260427
#
# Disc length: 3792 seconds
#
# Revision: 1
# Processed by: cddbd v1.5.2PL0 Copyright (c) Steve Scherf et al.
# Submitted via: ExactAudioCopy v0.99pb5
#
DISCID=0d0ece12
DTITLE=Lightnin' Hopkins - The Great Electric Show and Dance
DYEAR=1970
DGENRE=Blues
TTITLE0=Lovin' Arms
TTITLE1=Rock Me Mama
TTITLE2=Mr. Charlie Part 1
TTITLE3=Mr. Charlie Part 2
TTITLE4=Play With Your Poodle
TTITLE5=You're to Fast
TTITLE6=Love Me This Morning
TTITLE7=I'm Coming Home
TTITLE8=Ride in Your New Automobile
TTITLE9=Breakfast Time
TTITLE10=Mr. Charlie Parts 1 and 2 [Alt. Mix] (bonus)
TTITLE11=Play With Your Poodle [Alt. Mix] (bonus)
TTITLE12=My Daddy Was a Preacher (bonus)
TTITLE13=Lette to My Back Door Friend (bonus)
TTITLE14=Huntin' in The Mornin' (bonus)
TTITLE15=I'm Coming Home [Alt. Mix] (bonus)
TTITLE16=Ride in Your New Automobile [Alt. Mix] (bonus)
TTITLE17=A Death in The Family (bonus)
EXTD=
EXTT0=
EXTT1=
EXTT2=
EXTT3=
EXTT4=
EXTT5=
EXTT6=
EXTT7=
EXTT8=
EXTT9=
EXTT10=
EXTT11=
EXTT12=
EXTT13=
EXTT14=
EXTT15=
EXTT16=
EXTT17=
PLAYORDER=
